<?xml version="1.0" encoding="utf-8"?>
<!-- Generator: Adobe Illustrator 24.2.0, SVG Export Plug-In . SVG Version: 6.00 Build 0)  -->
<svg version="1.1" id="Ebene_1" xmlns="http://www.w3.org/2000/svg" xmlns:xlink="http://www.w3.org/1999/xlink" x="0px" y="0px"
	 viewBox="0 0 631 631" style="enable-background:new 0 0 631 631;" xml:space="preserve">
<style type="text/css">
	.st0{fill:#F6F6F6;}
	.st1{fill:#FF6F28;}
	.st2{fill:#58595B;}
</style>
<rect class="st0" width="631" height="631"/>
<polygon class="st1" points="393.34,273.07 564.12,272.71 591,251.61 405.84,252.02 "/>
<polygon class="st1" points="378.06,299.29 532.62,298.97 560.27,277.26 390.92,277.64 "/>
<polygon class="st1" points="364.54,305.34 397.84,252.15 367.59,252.14 349.44,281.14 "/>
<polygon class="st1" points="343.38,340.1 328.29,315.89 294.74,369.48 324.99,369.49 "/>
<polygon class="st2" points="125.44,369.42 98.84,369.33 99.37,252.3 125.96,252.38 "/>
<polygon class="st2" points="164.97,316.45 128.57,253.88 128.57,305.27 164.97,367.83 "/>
<polygon class="st2" points="210.64,276.8 210.75,252.42 282.75,252.64 282.64,277.02 "/>
<polygon class="st2" points="210.42,323.48 210.54,297.88 282.53,298.11 282.42,323.71 "/>
<polygon class="st2" points="210.3,369.36 210.42,344.16 282.41,344.39 282.3,369.58 "/>
<polygon class="st2" points="194.17,369.42 167.57,369.34 168.1,252.29 194.69,252.38 "/>
<polygon class="st2" points="398.67,368.91 325.46,252.75 295.22,252.85 368.42,369.01 "/>
<g>
	<path class="st2" d="M444.41,354.06c-0.03-0.08-0.06-0.16-0.08-0.24c0.34-0.29,0.68-0.58,1.03-0.85
		c5.06-3.87,10.12-7.74,15.19-11.59c1-0.76,1.97-1.48,2.13-2.87c0.06-0.55,0.3-1.09,0.47-1.62c0.81-2.57,1.67-5.13,2.4-7.72
		c0.15-0.52-0.02-1.28-0.32-1.75c-1.21-1.88-2.56-3.66-3.78-5.54c-0.41-0.63-0.86-0.83-1.56-0.83c-5.38,0.03-10.76,0.01-16.14,0.06
		c-0.55,0.01-1.19,0.23-1.63,0.56c-2.54,1.89-5.05,3.83-7.54,5.79c-0.49,0.38-1.05,0.85-1.24,1.39c-0.8,2.33-1.5,4.69-2.19,7.06
		c-0.33,1.12-0.16,1.3,1.01,1.3c2.91,0,5.82-0.02,8.72-0.03c2.48-0.01,2.44-0.01,3.03-2.46c0.52-2.13,1.71-3.73,4.22-3.47
		c0.66,0.07,1.34,0.01,2,0.01c1.27,0.01,1.96,0.81,1.7,2.07c-0.23,1.15-0.59,2.22-1.65,2.96c-1.29,0.89-2.5,1.89-3.74,2.84
		c-6.6,5.04-13.2,10.08-19.79,15.13c-0.78,0.6-1.59,1.16-1.88,2.24c-0.73,2.63-1.53,5.24-2.36,7.84c-0.45,1.43-0.4,1.56,1.08,1.55
		c9.66-0.02,19.32-0.03,28.98-0.05c0.43,0,0.89,0.04,1.3-0.06c0.27-0.07,0.62-0.33,0.7-0.57c1.07-3.36,2.1-6.73,3.13-10.1
		c0.18-0.6,0.13-1.02-0.72-1.01c-3.48,0.05-6.95,0.05-10.43,0.05C445.76,354.15,445.08,354.09,444.41,354.06z"/>
	<path class="st2" d="M479.37,365.32c-2.76,0-5.52-0.02-8.28,0.01c-0.82,0.01-1.39-0.16-1.88-0.95c-1.04-1.7-2.28-3.27-3.33-4.96
		c-0.31-0.5-0.48-1.28-0.34-1.84c0.45-1.84,1.07-3.63,1.63-5.44c0.76-2.44,1.54-4.87,2.3-7.31c0.8-2.56,1.6-5.12,2.39-7.68
		c0.72-2.32,1.43-4.65,2.18-6.96c0.11-0.34,0.34-0.69,0.61-0.9c2.54-1.99,5.09-3.97,7.68-5.9c0.44-0.33,1.09-0.53,1.64-0.54
		c5.64-0.04,11.29-0.02,16.93-0.03c0.63,0,1.06,0.2,1.42,0.74c1.14,1.71,2.31,3.41,3.52,5.07c0.55,0.76,0.57,1.49,0.3,2.33
		c-1.15,3.65-2.27,7.3-3.41,10.95c-1.11,3.55-2.25,7.1-3.37,10.65c-0.54,1.72-1.02,3.45-1.6,5.15c-0.16,0.48-0.45,1-0.84,1.3
		c-2.49,1.95-5.01,3.87-7.56,5.75c-0.45,0.33-1.1,0.52-1.66,0.53C484.95,365.34,482.16,365.31,479.37,365.32
		C479.37,365.32,479.37,365.32,479.37,365.32z M482.32,355.61C482.32,355.62,482.32,355.62,482.32,355.61
		c0.54,0.01,1.08-0.05,1.62,0.02c1.96,0.23,3.29-1,3.66-2.89c0.07-0.37,0.22-0.72,0.33-1.09c0.75-2.44,1.5-4.89,2.26-7.32
		c0.59-1.9,1.21-3.78,1.79-5.68c0.44-1.45,0.92-2.9,1.24-4.38c0.24-1.13-0.44-1.8-1.58-1.8c-1.3,0.01-2.6,0-3.9,0.01
		c-1.88,0.01-3.05,1-3.57,2.83c-0.85,2.97-1.77,5.92-2.68,8.88c-0.97,3.17-1.98,6.32-2.94,9.5c-0.32,1.05,0.32,1.89,1.39,1.92
		C480.73,355.63,481.53,355.61,482.32,355.61z"/>
</g>
</svg>
